<svg width="24" height="24" viewBox="0 0 24 24" xmlns="http://www.w3.org/2000/svg"><title>twitter--white</title><path d="M7.55 21.75c-2.78 0-5.366-.815-7.545-2.212.385.046.777.07 1.175.07 2.306 0 4.43-.788 6.113-2.108-2.154-.04-3.972-1.463-4.598-3.42.3.058.61.09.926.09.45 0 .888-.06 1.3-.173C2.668 13.544.97 11.555.97 9.17v-.062c.664.368 1.423.59 2.23.615-1.32-.882-2.19-2.39-2.19-4.097 0-.902.243-1.748.667-2.475C4.104 6.13 7.73 8.09 11.822 8.3c-.084-.36-.127-.736-.127-1.122 0-2.72 2.204-4.923 4.923-4.923 1.416 0 2.695.6 3.593 1.556 1.125-.22 2.18-.63 3.13-1.196-.367 1.15-1.15 2.115-2.164 2.725.995-.12 1.944-.385 2.827-.777-.66.987-1.494 1.854-2.455 2.55.01.21.014.42.014.635 0 6.505-4.952 14.006-14.007 14.006" fill="#FFF" fill-rule="evenodd"/></svg>